<svg width="224" height="224" viewBox="0 0 224 224" fill="none" xmlns="http://www.w3.org/2000/svg">
<path fill-rule="evenodd" clip-rule="evenodd" d="M223.562 105C221.863 77.8503 210.325 52.1521 190.977 32.804C169.973 11.8 141.485 2.24261e-06 111.781 0C82.077 -2.24261e-06 53.5894 11.8 32.5853 32.804C13.2372 52.1521 1.69909 77.8503 0 105H63.1142C64.6174 94.5478 69.4597 84.7878 77.0144 77.2332C86.2351 68.0124 98.7411 62.8323 111.781 62.8323C124.821 62.8323 137.327 68.0124 146.548 77.2332C154.103 84.7878 158.945 94.5478 160.448 105H223.562ZM223.419 121H160.131C158.326 130.697 153.63 139.703 146.557 146.775C137.334 155.998 124.825 161.18 111.781 161.18C98.7379 161.18 86.2288 155.998 77.0058 146.775C69.9328 139.702 65.2367 130.697 63.4316 121H0.143152C2.27123 147.41 13.7129 172.324 32.5853 191.196C53.5893 212.2 82.077 224 111.781 224C141.485 224 169.973 212.2 190.977 191.196C209.85 172.324 221.291 147.41 223.419 121Z" fill="#C4C4C4" fill-opacity="0.3"/>
<circle cx="111.781" cy="112" r="30" fill="#C4C4C4" fill-opacity="0.3"/>
</svg>
